<?xml version="1.0" encoding="utf-8"?>
<!-- Generator: Adobe Illustrator 26.4.1, SVG Export Plug-In . SVG Version: 6.00 Build 0)  -->
<svg version="1.1" id="Layer_1" xmlns="http://www.w3.org/2000/svg" xmlns:xlink="http://www.w3.org/1999/xlink" x="0px" y="0px"
	 viewBox="0 0 189.9 34.1" enable-background="new 0 0 189.9 34.1" xml:space="preserve">
<g>
	<path d="M18.9,28.8l-1.3-4.5h-8l-1.3,4.5H4.1l6.8-23h6l6.8,23H18.9z M13.7,10l-3,10.7h6L13.7,10z"/>
	<path d="M30.5,10.9v11.6c0,1,0.2,1.7,0.5,2.2s0.9,0.7,1.7,0.7c0.7,0,1.4-0.3,2.1-0.9s1.4-1.4,2.1-2.4V10.9h4.3v17.9h-3.7l-0.1-2.6
		c-0.4,0.5-0.8,0.9-1.1,1.2s-0.8,0.7-1.3,1s-0.9,0.5-1.5,0.6s-1.1,0.2-1.8,0.2c-0.9,0-1.7-0.1-2.4-0.4S28,28,27.6,27.4s-0.8-1.2-1-2
		s-0.3-1.6-0.3-2.6v-12H30.5z"/>
	<path d="M60.8,28.6c-0.8,0.2-1.6,0.3-2.3,0.4s-1.5,0.2-2.2,0.2c-1.2,0-2.2-0.1-3-0.4s-1.6-0.6-2.1-1.1s-1-1.1-1.2-1.9
		S49.4,24,49.4,23v-8.7h-4.8v-3.3h4.8V6.3l4.4-1.1v5.7h6.9v3.3h-6.9v8.4c0,1,0.2,1.8,0.7,2.3s1.3,0.8,2.4,0.8c0.7,0,1.4-0.1,2.1-0.2
		s1.3-0.3,1.8-0.4V28.6z"/>
	<path d="M71.6,14.2h-5v-3.3H76v14.5h5.2v3.3H65.9v-3.3h5.7V14.2z M76.3,6c0,0.4-0.1,0.8-0.2,1.1S75.8,7.7,75.5,8S75,8.4,74.6,8.6
		s-0.7,0.2-1.1,0.2s-0.8-0.1-1.1-0.2S71.8,8.2,71.5,8s-0.4-0.5-0.6-0.9S70.7,6.4,70.7,6s0.1-0.8,0.2-1.1s0.3-0.6,0.6-0.9
		s0.6-0.5,0.9-0.6s0.7-0.2,1.1-0.2s0.8,0.1,1.1,0.2s0.6,0.3,0.9,0.6s0.4,0.6,0.6,0.9S76.3,5.6,76.3,6z"/>
	<path d="M100.3,23.5c0,1-0.2,1.9-0.7,2.6s-1,1.3-1.8,1.8s-1.6,0.8-2.5,1s-1.9,0.3-2.9,0.3c-1.3,0-2.5-0.1-3.6-0.2s-2.1-0.3-3-0.5
		v-3.9c1.1,0.5,2.2,0.8,3.3,1s2.1,0.3,3.1,0.3c1.1,0,2-0.2,2.5-0.5s0.8-0.8,0.8-1.4c0-0.3-0.1-0.5-0.2-0.7s-0.3-0.4-0.7-0.6
		s-0.8-0.4-1.4-0.6s-1.4-0.5-2.3-0.7c-0.9-0.2-1.6-0.5-2.3-0.8s-1.2-0.7-1.6-1.1s-0.8-0.9-1-1.5s-0.3-1.2-0.3-2
		c0-0.7,0.2-1.4,0.5-2.1s0.8-1.2,1.5-1.7s1.5-0.9,2.4-1.2s2.1-0.4,3.4-0.4c1.1,0,2.1,0.1,3,0.2s1.6,0.2,2.3,0.4v3.5
		c-1-0.3-2-0.6-2.9-0.7s-1.8-0.2-2.7-0.2s-1.6,0.2-2.1,0.5s-0.8,0.8-0.8,1.3c0,0.3,0.1,0.5,0.2,0.7s0.3,0.4,0.6,0.6s0.7,0.4,1.3,0.6
		s1.3,0.5,2.2,0.7c1,0.3,1.9,0.6,2.6,0.9s1.3,0.7,1.7,1.1s0.7,0.9,0.9,1.4S100.3,22.8,100.3,23.5z"/>
	<path d="M118,28.8V16.6c0-0.4,0-0.8,0-1.2s-0.1-0.6-0.1-0.8s-0.2-0.4-0.3-0.5s-0.3-0.2-0.6-0.2c-0.4,0-0.7,0.2-1.1,0.7
		s-0.8,1.3-1.2,2.5v11.6H111V16.6c0-0.4,0-0.8,0-1.2s-0.1-0.6-0.1-0.8s-0.2-0.4-0.3-0.5s-0.3-0.2-0.6-0.2c-0.3,0-0.6,0.2-1,0.7
		s-0.8,1.3-1.2,2.5v11.6H104V10.9h3.2l0.1,2.6c0.3-0.5,0.5-1,0.8-1.4s0.5-0.7,0.8-0.9s0.6-0.4,0.9-0.5s0.7-0.2,1.1-0.2
		c1,0,1.8,0.3,2.3,0.8s0.8,1.2,0.9,2.2c0.3-0.5,0.6-1,0.8-1.4s0.6-0.7,0.9-0.9s0.6-0.4,1-0.5s0.7-0.2,1.2-0.2c1.3,0,2.3,0.5,2.9,1.4
		s0.9,2.3,0.9,4v12.8H118z"/>
</g>
<g>
	<path fill="#ED1C24" d="M130.8,28.8v-3.8h5.9V10.2l-5.1,2.8l-1.4-3.5l7.3-3.8h3.6v19.3h5v3.8H130.8z"/>
	<path fill="#ED1C24" d="M166.8,17.2c0,1.9-0.2,3.6-0.6,5.1s-1,2.7-1.8,3.8s-1.8,1.8-2.9,2.3s-2.4,0.8-3.9,0.8
		c-1.3,0-2.4-0.2-3.5-0.7s-2-1.1-2.8-2.1s-1.4-2.2-1.8-3.7s-0.7-3.3-0.7-5.3c0-1.9,0.2-3.6,0.6-5.1s1-2.7,1.8-3.8s1.8-1.8,2.9-2.3
		s2.4-0.8,3.9-0.8c1.3,0,2.4,0.2,3.5,0.7s2,1.1,2.8,2.1s1.4,2.2,1.8,3.7S166.8,15.1,166.8,17.2z M153.1,17.3c0,0.2,0,0.5,0,0.7
		s0,0.4,0,0.6l8.6-6.2c-0.4-1.2-1-2-1.6-2.6s-1.5-0.8-2.4-0.8c-0.7,0-1.3,0.2-1.8,0.5s-1.1,0.8-1.5,1.5s-0.7,1.6-1,2.6
		S153.1,15.8,153.1,17.3z M162.4,17.3c0-0.2,0-0.4,0-0.6s0-0.4,0-0.6l-8.6,6.2c0.4,1.1,0.9,2,1.6,2.5s1.5,0.8,2.4,0.8
		c0.7,0,1.3-0.2,1.8-0.5s1.1-0.9,1.5-1.5s0.7-1.6,1-2.6S162.4,18.7,162.4,17.3z"/>
	<path fill="#ED1C24" d="M170.4,28.8v-3.8h5.9V10.2l-5.1,2.8l-1.4-3.5l7.3-3.8h3.6v19.3h5v3.8H170.4z"/>
</g>
</svg>
